<?xml version="1.0" encoding="UTF-8" standalone="no"?>
<!DOCTYPE svg PUBLIC "-//W3C//DTD SVG 1.1//EN"
 "http://www.w3.org/Graphics/SVG/1.1/DTD/svg11.dtd">
<!-- Generated by graphviz version 2.40.1 (20161225.0304)
 -->
<!-- Pages: 1 -->
<svg width="912pt" height="370pt"
 viewBox="0.00 0.00 911.50 369.50" xmlns="http://www.w3.org/2000/svg" xmlns:xlink="http://www.w3.org/1999/xlink">
<g id="graph0" class="graph" transform="scale(1 1) rotate(0) translate(4 365.5)">
<polygon fill="#ffffff" stroke="transparent" points="-4,4 -4,-365.5 907.5,-365.5 907.5,4 -4,4"/>
<g id="clust1" class="cluster">
<title>cluster~</title>
<path fill="none" stroke="#000000" d="M20,-8C20,-8 770,-8 770,-8 776,-8 782,-14 782,-20 782,-20 782,-341.5 782,-341.5 782,-347.5 776,-353.5 770,-353.5 770,-353.5 20,-353.5 20,-353.5 14,-353.5 8,-347.5 8,-341.5 8,-341.5 8,-20 8,-20 8,-14 14,-8 20,-8"/>
<text text-anchor="middle" x="395" y="-338.3" font-family="Times,serif" font-size="14.00" fill="#000000">directed_graph</text>
</g>
<g id="clust2" class="cluster">
<title>cluster~/benchmark</title>
<path fill="none" stroke="#000000" d="M654,-208.5C654,-208.5 762,-208.5 762,-208.5 768,-208.5 774,-214.5 774,-220.5 774,-220.5 774,-310.5 774,-310.5 774,-316.5 768,-322.5 762,-322.5 762,-322.5 654,-322.5 654,-322.5 648,-322.5 642,-316.5 642,-310.5 642,-310.5 642,-220.5 642,-220.5 642,-214.5 648,-208.5 654,-208.5"/>
<text text-anchor="middle" x="708" y="-307.3" font-family="Times,serif" font-size="14.00" fill="#000000">benchmark</text>
</g>
<g id="clust3" class="cluster">
<title>cluster~/benchmark/bin</title>
<path fill="none" stroke="#000000" d="M662,-216.5C662,-216.5 754,-216.5 754,-216.5 760,-216.5 766,-222.5 766,-228.5 766,-228.5 766,-279.5 766,-279.5 766,-285.5 760,-291.5 754,-291.5 754,-291.5 662,-291.5 662,-291.5 656,-291.5 650,-285.5 650,-279.5 650,-279.5 650,-228.5 650,-228.5 650,-222.5 656,-216.5 662,-216.5"/>
<text text-anchor="middle" x="708" y="-276.3" font-family="Times,serif" font-size="14.00" fill="#000000">bin</text>
</g>
<g id="clust4" class="cluster">
<title>cluster~/test</title>
<path fill="none" stroke="#000000" d="M296,-216.5C296,-216.5 622,-216.5 622,-216.5 628,-216.5 634,-222.5 634,-228.5 634,-228.5 634,-279.5 634,-279.5 634,-285.5 628,-291.5 622,-291.5 622,-291.5 296,-291.5 296,-291.5 290,-291.5 284,-285.5 284,-279.5 284,-279.5 284,-228.5 284,-228.5 284,-222.5 290,-216.5 296,-216.5"/>
<text text-anchor="middle" x="459" y="-276.3" font-family="Times,serif" font-size="14.00" fill="#000000">test</text>
</g>
<g id="clust5" class="cluster">
<title>cluster~/example</title>
<path fill="none" stroke="#000000" d="M28,-208.5C28,-208.5 264,-208.5 264,-208.5 270,-208.5 276,-214.5 276,-220.5 276,-220.5 276,-310.5 276,-310.5 276,-316.5 270,-322.5 264,-322.5 264,-322.5 28,-322.5 28,-322.5 22,-322.5 16,-316.5 16,-310.5 16,-310.5 16,-220.5 16,-220.5 16,-214.5 22,-208.5 28,-208.5"/>
<text text-anchor="middle" x="146" y="-307.3" font-family="Times,serif" font-size="14.00" fill="#000000">example</text>
</g>
<g id="clust6" class="cluster">
<title>cluster~/example/bin</title>
<path fill="none" stroke="#000000" d="M36,-216.5C36,-216.5 256,-216.5 256,-216.5 262,-216.5 268,-222.5 268,-228.5 268,-228.5 268,-279.5 268,-279.5 268,-285.5 262,-291.5 256,-291.5 256,-291.5 36,-291.5 36,-291.5 30,-291.5 24,-285.5 24,-279.5 24,-279.5 24,-228.5 24,-228.5 24,-222.5 30,-216.5 36,-216.5"/>
<text text-anchor="middle" x="146" y="-276.3" font-family="Times,serif" font-size="14.00" fill="#000000">bin</text>
</g>
<g id="clust7" class="cluster">
<title>cluster~/lib</title>
<path fill="none" stroke="#000000" d="M312,-16C312,-16 432,-16 432,-16 438,-16 444,-22 444,-28 444,-28 444,-151 444,-151 444,-157 438,-163 432,-163 432,-163 312,-163 312,-163 306,-163 300,-157 300,-151 300,-151 300,-28 300,-28 300,-22 306,-16 312,-16"/>
<text text-anchor="middle" x="372" y="-147.8" font-family="Times,serif" font-size="14.00" fill="#000000">lib</text>
</g>
<!-- /benchmark/bin/benchmark.dart -->
<g id="node1" class="node">
<title>/benchmark/bin/benchmark.dart</title>
<ellipse fill="none" stroke="#000000" cx="708" cy="-242.5" rx="50.0912" ry="18"/>
<text text-anchor="middle" x="708" y="-238.8" font-family="Times,serif" font-size="14.00" fill="#000000">benchmark</text>
</g>
<!-- /lib/directed_graph.dart -->
<g id="node6" class="node">
<title>/lib/directed_graph.dart</title>
<ellipse fill="none" stroke="#000000" cx="372" cy="-114" rx="63.8893" ry="18"/>
<text text-anchor="middle" x="372" y="-110.3" font-family="Times,serif" font-size="14.00" fill="#000000">directed_graph</text>
</g>
<!-- /benchmark/bin/benchmark.dart&#45;&gt;/lib/directed_graph.dart -->
<g id="edge1" class="edge">
<title>/benchmark/bin/benchmark.dart&#45;&gt;/lib/directed_graph.dart</title>
<path fill="none" stroke="#000000" d="M695.6485,-224.9109C683.0704,-208.376 662.0405,-184.2443 638,-171 629.0306,-166.0586 510.0897,-141.6437 434.3256,-126.4139"/>
<polygon fill="#000000" stroke="#000000" points="434.8889,-122.9572 424.3957,-124.4207 433.5113,-129.8203 434.8889,-122.9572"/>
</g>
<!-- /lib/graph_crawler.dart -->
<g id="node7" class="node">
<title>/lib/graph_crawler.dart</title>
<ellipse fill="none" stroke="#000000" cx="372" cy="-42" rx="61.99" ry="18"/>
<text text-anchor="middle" x="372" y="-38.3" font-family="Times,serif" font-size="14.00" fill="#000000">graph_crawler</text>
</g>
<!-- /benchmark/bin/benchmark.dart&#45;&gt;/lib/graph_crawler.dart -->
<g id="edge2" class="edge">
<title>/benchmark/bin/benchmark.dart&#45;&gt;/lib/graph_crawler.dart</title>
<path fill="none" stroke="#000000" d="M693.8591,-224.9348C680.6351,-209.3263 659.7145,-186.6261 638,-171 568.4397,-120.9431 476.4575,-81.3053 420.8951,-59.7904"/>
<polygon fill="#000000" stroke="#000000" points="421.884,-56.4212 411.2936,-56.1127 419.3801,-62.9581 421.884,-56.4212"/>
</g>
<!-- /test/graph_crawler_test.dart -->
<g id="node2" class="node">
<title>/test/graph_crawler_test.dart</title>
<ellipse fill="none" stroke="#000000" cx="548" cy="-242.5" rx="77.9862" ry="18"/>
<text text-anchor="middle" x="548" y="-238.8" font-family="Times,serif" font-size="14.00" fill="#000000">graph_crawler_test</text>
</g>
<!-- /test/graph_crawler_test.dart&#45;&gt;/lib/directed_graph.dart -->
<g id="edge3" class="edge">
<title>/test/graph_crawler_test.dart&#45;&gt;/lib/directed_graph.dart</title>
<path fill="none" stroke="#000000" d="M528.1479,-225.0449C510.8539,-210.1191 484.8753,-188.3631 461,-171 444.0969,-158.7074 424.6158,-146.0692 408.1972,-135.8266"/>
<polygon fill="#000000" stroke="#000000" points="409.7722,-132.6853 399.4267,-130.4001 406.0891,-138.6381 409.7722,-132.6853"/>
</g>
<!-- /test/graph_crawler_test.dart&#45;&gt;/lib/graph_crawler.dart -->
<g id="edge4" class="edge">
<title>/test/graph_crawler_test.dart&#45;&gt;/lib/graph_crawler.dart</title>
<path fill="none" stroke="#000000" d="M537.898,-224.4423C521.0764,-195.3374 485.1785,-137.159 445,-96 433.6372,-84.3599 419.5742,-73.3301 406.8339,-64.3097"/>
<polygon fill="#000000" stroke="#000000" points="408.4929,-61.2021 398.2744,-58.4031 404.5171,-66.9635 408.4929,-61.2021"/>
</g>
<!-- /test/directed_graph_test.dart -->
<g id="node3" class="node">
<title>/test/directed_graph_test.dart</title>
<ellipse fill="none" stroke="#000000" cx="372" cy="-242.5" rx="79.8859" ry="18"/>
<text text-anchor="middle" x="372" y="-238.8" font-family="Times,serif" font-size="14.00" fill="#000000">directed_graph_test</text>
</g>
<!-- /test/directed_graph_test.dart&#45;&gt;/lib/directed_graph.dart -->
<g id="edge5" class="edge">
<title>/test/directed_graph_test.dart&#45;&gt;/lib/directed_graph.dart</title>
<path fill="none" stroke="#000000" d="M372,-224.3616C372,-203.0282 372,-167.3595 372,-142.3617"/>
<polygon fill="#000000" stroke="#000000" points="375.5001,-142.0461 372,-132.0461 368.5001,-142.0461 375.5001,-142.0461"/>
</g>
<!-- /example/bin/example_cycle.dart -->
<g id="node4" class="node">
<title>/example/bin/example_cycle.dart</title>
<ellipse fill="none" stroke="#000000" cx="96" cy="-242.5" rx="63.8893" ry="18"/>
<text text-anchor="middle" x="96" y="-238.8" font-family="Times,serif" font-size="14.00" fill="#000000">example_cycle</text>
</g>
<!-- /example/bin/example_cycle.dart&#45;&gt;/lib/directed_graph.dart -->
<g id="edge6" class="edge">
<title>/example/bin/example_cycle.dart&#45;&gt;/lib/directed_graph.dart</title>
<path fill="none" stroke="#000000" d="M109.7483,-224.6361C123.1768,-208.3756 145.0441,-184.8559 169,-171 210.8615,-146.7877 263.5775,-132.3854 304.7974,-124.1162"/>
<polygon fill="#000000" stroke="#000000" points="305.5921,-127.5274 314.7464,-122.1937 304.264,-120.6546 305.5921,-127.5274"/>
</g>
<!-- /example/bin/example_cycle.dart&#45;&gt;/lib/graph_crawler.dart -->
<g id="edge7" class="edge">
<title>/example/bin/example_cycle.dart&#45;&gt;/lib/graph_crawler.dart</title>
<path fill="none" stroke="#000000" d="M113.5372,-224.9918C128.223,-210.4106 149.803,-189.1703 169,-171 204.8695,-137.0488 209.6957,-123.0789 251,-96 273.3043,-81.3774 300.2234,-68.9239 323.0028,-59.674"/>
<polygon fill="#000000" stroke="#000000" points="324.4836,-62.8519 332.4865,-55.9089 321.9006,-56.3459 324.4836,-62.8519"/>
</g>
<!-- /example/bin/example.dart -->
<g id="node5" class="node">
<title>/example/bin/example.dart</title>
<ellipse fill="none" stroke="#000000" cx="219" cy="-242.5" rx="40.8928" ry="18"/>
<text text-anchor="middle" x="219" y="-238.8" font-family="Times,serif" font-size="14.00" fill="#000000">example</text>
</g>
<!-- /example/bin/example.dart&#45;&gt;/lib/directed_graph.dart -->
<g id="edge8" class="edge">
<title>/example/bin/example.dart&#45;&gt;/lib/directed_graph.dart</title>
<path fill="none" stroke="#000000" d="M231.2559,-225.2897C242.7346,-209.9201 260.937,-187.3713 280,-171 295.8757,-157.366 315.3511,-144.8064 332.2891,-134.967"/>
<polygon fill="#000000" stroke="#000000" points="334.4335,-137.7742 341.3991,-129.791 330.9754,-131.6879 334.4335,-137.7742"/>
</g>
<!-- /example/bin/example.dart&#45;&gt;/lib/graph_crawler.dart -->
<g id="edge9" class="edge">
<title>/example/bin/example.dart&#45;&gt;/lib/graph_crawler.dart</title>
<path fill="none" stroke="#000000" d="M225.7296,-224.7441C237.4013,-195.5583 263.5856,-136.6345 299,-96 309.5193,-83.9301 323.1817,-72.9379 335.8377,-64.068"/>
<polygon fill="#000000" stroke="#000000" points="338.0693,-66.7839 344.3877,-58.2793 334.1448,-60.9875 338.0693,-66.7839"/>
</g>
<!-- /lib/directed_graph.dart&#45;&gt;/lib/graph_crawler.dart -->
<g id="edge10" class="edge">
<title>/lib/directed_graph.dart&#45;&gt;/lib/graph_crawler.dart</title>
<path fill="none" stroke="#000000" d="M366.0476,-95.8314C365.2972,-88.131 365.0763,-78.9743 365.3849,-70.4166"/>
<polygon fill="#000000" stroke="#000000" points="368.8792,-70.6161 366.024,-60.4133 361.8935,-70.1697 368.8792,-70.6161"/>
</g>
<!-- /lib/graph_crawler.dart&#45;&gt;/lib/directed_graph.dart -->
<g id="edge11" class="edge">
<title>/lib/graph_crawler.dart&#45;&gt;/lib/directed_graph.dart</title>
<path fill="none" stroke="#000000" d="M377.976,-60.4133C378.7071,-68.0593 378.9203,-77.1084 378.6155,-85.5726"/>
<polygon fill="#000000" stroke="#000000" points="375.1048,-85.6264 377.9524,-95.8314 382.0902,-86.078 375.1048,-85.6264"/>
</g>
<!-- metrics -->
<g id="node8" class="node">
<title>metrics</title>
<polygon fill="none" stroke="#000000" points="903.5,-314 790.5,-314 790.5,-171 903.5,-171 903.5,-314"/>
<text text-anchor="start" x="798.5" y="-298.8" font-family="Times,serif" font-size="14.00" fill="#000000"> isAcyclic: false </text>
<text text-anchor="start" x="798.5" y="-283.8" font-family="Times,serif" font-size="14.00" fill="#000000"> numNodes: 7 </text>
<text text-anchor="start" x="798.5" y="-268.8" font-family="Times,serif" font-size="14.00" fill="#000000"> numOrphans: 0 </text>
<text text-anchor="start" x="798.5" y="-253.8" font-family="Times,serif" font-size="14.00" fill="#000000"> ccd: 19 </text>
<text text-anchor="start" x="798.5" y="-238.8" font-family="Times,serif" font-size="14.00" fill="#000000"> acd: 2.71 </text>
<text text-anchor="start" x="798.5" y="-223.8" font-family="Times,serif" font-size="14.00" fill="#000000"> acdp: 38.78% </text>
<text text-anchor="start" x="798.5" y="-208.8" font-family="Times,serif" font-size="14.00" fill="#000000"> nccd: 1.12 </text>
<text text-anchor="start" x="798.5" y="-193.8" font-family="Times,serif" font-size="14.00" fill="#000000"> totalSloc: 1105 </text>
<text text-anchor="start" x="798.5" y="-178.8" font-family="Times,serif" font-size="14.00" fill="#000000"> avgSloc: 157.86 </text>
</g>
</g>
</svg>
